<svg width="24" height="25" viewBox="0 0 24 25" fill="none" xmlns="http://www.w3.org/2000/svg">
<path fill-rule="evenodd" clip-rule="evenodd" d="M9.592 15.7068C13.281 15.7068 16.434 16.2658 16.434 18.4988C16.434 20.7318 13.302 21.3068 9.592 21.3068C5.902 21.3068 2.75 20.7528 2.75 18.5188C2.75 16.2848 5.881 15.7068 9.592 15.7068Z" stroke="#4F5665" stroke-width="1.5" stroke-linecap="round" stroke-linejoin="round"/>
<path fill-rule="evenodd" clip-rule="evenodd" d="M9.59108 12.5198C7.16908 12.5198 5.20508 10.5568 5.20508 8.13479C5.20508 5.71279 7.16908 3.74979 9.59108 3.74979C12.0121 3.74979 13.9761 5.71279 13.9761 8.13479C13.9851 10.5478 12.0351 12.5108 9.62208 12.5198H9.59108Z" stroke="#4F5665" stroke-width="1.5" stroke-linecap="round" stroke-linejoin="round"/>
<path d="M16.4844 11.3816C18.0854 11.1566 19.3184 9.78259 19.3214 8.11959C19.3214 6.48059 18.1264 5.12059 16.5594 4.86359" stroke="#4F5665" stroke-width="1.5" stroke-linecap="round" stroke-linejoin="round"/>
<path d="M18.5957 15.2322C20.1467 15.4632 21.2297 16.0072 21.2297 17.1272C21.2297 17.8982 20.7197 18.3982 19.8957 18.7112" stroke="#4F5665" stroke-width="1.5" stroke-linecap="round" stroke-linejoin="round"/>
</svg>
